<svg xmlns="http://www.w3.org/2000/svg" xmlns:xlink="http://www.w3.org/1999/xlink" width="354" height="92" viewBox="0 0 354 92">
  <defs>
    <linearGradient id="linear-gradient" x1="0.13" y1="0.219" x2="0.805" y2="0.455" gradientUnits="objectBoundingBox">
      <stop offset="0" stop-color="#369bd3"/>
      <stop offset="1" stop-color="#0b2736" stop-opacity="0.859"/>
    </linearGradient>
    <linearGradient id="linear-gradient-2" x1="0.87" y1="0.219" x2="0.195" y2="0.455" xlink:href="#linear-gradient"/>
  </defs>
  <g id="Group_6" data-name="Group 6" transform="translate(-183 -822)">
    <g id="Group_4" data-name="Group 4" transform="translate(185 757.403)">
      <path id="Path_3" data-name="Path 3" d="M872.213,421.988l12.6,20.495,15.578-26a4.254,4.254,0,0,1,3.544-2.6c2.6-.146,6.942,1.65,15.049,4.223s13.958,4.43,17.961,5.024a42.043,42.043,0,0,0,7.4.424,12.246,12.246,0,0,1-2.779,5.49,17.632,17.632,0,0,1-4.624,3.969,14.25,14.25,0,0,1-5,1.53,30.584,30.584,0,0,1-8.277-1.027c-2.315-.575-16.087-5.772-16.087-5.772a44.641,44.641,0,0,0,3.68,3.4,50.545,50.545,0,0,0,4.759,3.26,33.335,33.335,0,0,0,6.818,3.133,77.6,77.6,0,0,0,9.019,2.335s-3.892,5.088-5.64,6.119a9.65,9.65,0,0,1-4.1,1.7c-2.18.351-2.3.467-5.753-.5a52.489,52.489,0,0,1-8.055-3.377l-4.849-2.487a12.693,12.693,0,0,0,1.824,3.092,17.009,17.009,0,0,0,2.906,2.639l3.948,2.577s-5.916,4.06-6.854,4.348a7.828,7.828,0,0,1-5.328-.4,15.232,15.232,0,0,1-4.825-3.68s-9.46,13.736-10.6,13.736-13.343-19.36-13.343-19.36S857.122,463.827,872.213,421.988Z" transform="translate(-733.199 -332)" fill="url(#linear-gradient)"/>
      <path id="Path_4" data-name="Path 4" d="M627.941,421.988l-12.6,20.495-15.578-26a4.255,4.255,0,0,0-3.544-2.6c-2.6-.146-6.942,1.651-15.049,4.223s-13.958,4.43-17.961,5.024a42.043,42.043,0,0,1-7.4.424,12.246,12.246,0,0,0,2.779,5.49,17.631,17.631,0,0,0,4.624,3.969,14.25,14.25,0,0,0,5,1.53,30.582,30.582,0,0,0,8.277-1.027c2.315-.575,16.087-5.772,16.087-5.772a44.627,44.627,0,0,1-3.68,3.4,50.514,50.514,0,0,1-4.759,3.26,33.333,33.333,0,0,1-6.818,3.133,77.61,77.61,0,0,1-9.019,2.335s3.892,5.088,5.64,6.119a9.65,9.65,0,0,0,4.1,1.7c2.18.351,2.3.467,5.753-.5a52.494,52.494,0,0,0,8.055-3.377l4.849-2.487a12.693,12.693,0,0,1-1.824,3.092,17.018,17.018,0,0,1-2.905,2.639l-3.948,2.577s5.916,4.06,6.854,4.348a7.828,7.828,0,0,0,5.328-.4,15.232,15.232,0,0,0,4.825-3.68s9.46,13.736,10.6,13.736,12.319-17.645,12.319-17.645Z" transform="translate(-489 -332)" fill="url(#linear-gradient-2)"/>
    </g>
    <text id="INET" transform="translate(183 883)" fill="#2e5970" font-size="60" font-family="JosefinSans, Josefin Sans"><tspan x="0" y="0">I</tspan><tspan y="0" font-size="31" font-family="JosefinSans-Bold, Josefin Sans" font-weight="700">NET</tspan></text>
    <text id="ORk" transform="translate(381 882)" fill="#2e5970" font-size="30" font-family="JosefinSans-Bold, Josefin Sans" font-weight="700"><tspan x="0" y="0">OR</tspan><tspan y="0" font-size="62" font-family="JosefinSans, Josefin Sans" font-weight="400">k</tspan></text>
    <text id="HUB" transform="translate(459 883)" fill="#2e5970" font-size="60" font-family="JosefinSans, Josefin Sans"><tspan x="0" y="0">H</tspan><tspan y="0" font-size="30" font-family="JosefinSans-Bold, Josefin Sans" font-weight="700">UB</tspan></text>
    <text id="PIONEER_OF_THE_TECH_WORLD" data-name="PIONEER OF THE TECH WORLD" transform="translate(248 911)" fill="#2e5970" font-size="12" font-family="LeelawadeeUI-Bold, Leelawadee UI" font-weight="700" letter-spacing="0.223em"><tspan x="0" y="0">PIONEER OF THE TECH WORLD</tspan></text>
  </g>
</svg>
